arm26_ForwardRun_states
version=1
nRows=20
nColumns=17
inDegrees=yes

# SIMM Motion File Header:
name arm26_ForwardRun_states
datacolumns 17
datarows 20
otherdata 1
range 0.48083964 0.50937461
endheader
time	r_shoulder/r_shoulder_elev/r_shoulder_elev	r_shoulder/r_shoulder_elev/r_shoulder_elev_u	r_elbow/r_elbow_flex/r_elbow_flex	r_elbow/r_elbow_flex/r_elbow_flex_u	TRIlong/activation	TRIlong/fiber_length	TRIlat/activation	TRIlat/fiber_length	TRImed/activation	TRImed/fiber_length	BIClong/activation	BIClong/fiber_length	BICshort/activation	BICshort/fiber_length	BRA/activation	BRA/fiber_length
      0.48083964	      1.00108336	     -0.18368051	    -49.72443607	     -3.24504149	      0.01025329	      0.13945904	      0.01025329	      0.07322155	      0.01025329	      0.06809422	      0.01025329	      0.14091182	      0.01025329	      0.14347819	      0.01025329	      0.07780556
      0.48223565	      0.98578732	     -0.19874798	    -49.98156641	     -3.18445948	      0.01024967	      0.13955346	      0.01024967	      0.07332764	      0.01024967	      0.06819619	      0.01024967	      0.14083229	      0.01024967	      0.14339257	      0.01024967	      0.07772410
      0.48335007	      0.97271585	     -0.21067712	    -50.18335655	     -3.13617141	      0.01024682	      0.13962702	      0.01024682	      0.07341107	      0.01024682	      0.06828743	      0.01024682	      0.14076971	      0.01024682	      0.14332501	      0.01024682	      0.07765995
      0.48446448	      0.95888685	     -0.22246346	    -50.38206969	     -3.08811795	      0.01024400	      0.13969896	      0.01024400	      0.07349327	      0.01024400	      0.06836312	      0.01024400	      0.14070795	      0.01024400	      0.14325816	      0.01024400	      0.07759660
      0.48557890	      0.94430829	     -0.23416169	    -50.57771724	     -3.04012856	      0.01024121	      0.13976929	      0.01024121	      0.07357431	      0.01024121	      0.06844685	      0.01024121	      0.14064701	      0.01024121	      0.14319204	      0.01024121	      0.07753404
      0.48704913	      0.92393927	     -0.24939966	    -50.83115344	     -2.97710134	      0.01023758	      0.13985961	      0.01023758	      0.07367941	      0.01023758	      0.06854811	      0.01023758	      0.14056791	      0.01023758	      0.14310593	      0.01023758	      0.07745272
      0.48830191	      0.90557586	     -0.26224843	    -51.04292423	     -2.92352633	      0.01023453	      0.13993437	      0.01023453	      0.07376737	      0.01023453	      0.06864289	      0.01023453	      0.14050167	      0.01023453	      0.14303361	      0.01023453	      0.07738454
      0.48955469	      0.88629617	     -0.27491596	    -51.25085841	     -2.87024608	      0.01023153	      0.14000712	      0.01023153	      0.07385382	      0.01023153	      0.06872328	      0.01023153	      0.14043652	      0.01023153	      0.14296225	      0.01023153	      0.07731739
      0.49080747	      0.86611202	     -0.28745816	    -51.45497345	     -2.81708584	      0.01022856	      0.14007785	      0.01022856	      0.07393878	      0.01022856	      0.06881130	      0.01022856	      0.14037249	      0.01022856	      0.14289189	      0.01022856	      0.07725126
      0.49234918	      0.84004629	     -0.30266021	    -51.70093830	     -2.75201766	      0.01022495	      0.14016214	      0.01022495	      0.07404127	      0.01022495	      0.06891011	      0.01022495	      0.14029522	      0.01022495	      0.14280670	      0.01022495	      0.07717131
      0.49389089	      0.81264794	     -0.31765485	    -51.94116913	     -2.68718312	      0.01022141	      0.14024343	      0.01022141	      0.07414153	      0.01022141	      0.06901894	      0.01022141	      0.14021967	      0.01022141	      0.14272306	      0.01022141	      0.07709294
      0.49516446	      0.78902363	     -0.32982122	    -52.13531215	     -2.63399940	      0.01021852	      0.14030832	      0.01021852	      0.07422265	      0.01021852	      0.06909251	      0.01021852	      0.14015857	      0.01021852	      0.14265516	      0.01021852	      0.07702940
      0.49643803	      0.76451661	     -0.34184887	    -52.32557978	     -2.58096475	      0.01021567	      0.14037117	      0.01021567	      0.07430222	      0.01021567	      0.06917327	      0.01021567	      0.14009867	      0.01021567	      0.14258835	      0.01021567	      0.07696694
      0.49846251	      0.72377177	     -0.36060618	    -52.62009026	     -2.49720435	      0.01021122	      0.14046694	      0.01021122	      0.07442551	      0.01021122	      0.06929466	      0.01021122	      0.14000596	      0.01021122	      0.14248446	      0.01021122	      0.07686992
      0.50015884	      0.68797300	     -0.37600433	    -52.85940907	     -2.42746066	      0.01020756	      0.14054329	      0.01020756	      0.07452594	      0.01020756	      0.06939913	      0.01020756	      0.13993064	      0.01020756	      0.14239961	      0.01020756	      0.07679075
      0.50185518	      0.65069336	     -0.39106106	    -53.09197374	     -2.35827585	      0.01020396	      0.14061614	      0.01020396	      0.07462358	      0.01020396	      0.06949227	      0.01020396	      0.13985753	      0.01020396	      0.14231679	      0.01020396	      0.07671353
      0.50355152	      0.61196508	     -0.40582753	    -53.31783553	     -2.28948921	      0.01020042	      0.14068551	      0.01020042	      0.07471857	      0.01020042	      0.06959068	      0.01020042	      0.13978662	      0.01020042	      0.14223604	      0.01020042	      0.07663827
      0.50524785	      0.57181787	     -0.42024911	    -53.53703785	     -2.22127133	      0.01019695	      0.14075144	      0.01019695	      0.07481087	      0.01019695	      0.06968022	      0.01019695	      0.13971794	      0.01019695	      0.14215738	      0.01019695	      0.07656497
      0.50694419	      0.53028447	     -0.43435553	    -53.74963352	     -2.15352865	      0.01019354	      0.14081397	      0.01019354	      0.07490051	      0.01019354	      0.06977098	      0.01019354	      0.13965149	      0.01019354	      0.14208084	      0.01019354	      0.07649364
      0.50937461	      0.46842505	     -0.45396657	    -54.04281479	     -2.05745724	      0.01018875	      0.14089773	      0.01018875	      0.07502429	      0.01018875	      0.06989298	      0.01018875	      0.13956023	      0.01018875	      0.14197489	      0.01018875	      0.07639486
